<svg width="300" height="144.34299" xmlns="http://www.w3.org/2000/svg" version="1.1">
 <defs id="defs11838">
  <clipPath id="clipPath6329">
   <path d="m555.88576,260.2584l49.189,0l0,23.657l-49.189,0l0,-23.657z" id="path6331"/>
  </clipPath>
 </defs>
 <metadata id="metadata11841">image/svg+xml</metadata>
 <g>
  <title>Layer 1</title>
  <g id="layer1">
   <g id="g11653">
    <g transform="matrix(6.12292 0 0 -6.12292 -3403.69 1738)" id="g6325" fill="#000000">
     <g clip-path="url(#clipPath6329)" id="g6327" fill="#000000">
      <g id="g6333" fill="#000000">
       <path d="m575.57794,263.4533c-0.114,0.205 -0.261,0.31 -0.494,0.31c-0.245,0 -0.514,-0.179 -0.514,-0.468c0,-0.257 0.236,-0.392 0.428,-0.47l0.22,-0.093c0.438,-0.182 0.764,-0.44 0.764,-0.99c0,-0.598 -0.432,-1.027 -0.984,-1.027c-0.497,0 -0.885,0.393 -0.951,0.922l0.388,0.087c-0.004,-0.362 0.265,-0.624 0.596,-0.624c0.331,0 0.567,0.297 0.567,0.642c0,0.354 -0.265,0.506 -0.53,0.624l-0.212,0.096c-0.351,0.161 -0.671,0.375 -0.671,0.833c0,0.533 0.442,0.852 0.907,0.852c0.343,0 0.625,-0.179 0.792,-0.498l-0.306,-0.196z" id="path6335" fill-rule="nonzero" fill="#ffffff"/>
      </g>
      <g id="g6337" fill="#000000">
       <path d="m577.23187,260.78591l-0.384,0l0,2.916l-0.73,0l0,0.376l1.845,0l0,-0.376l-0.731,0l0,-2.916z" id="path6339" fill-rule="nonzero" fill="#ffffff"/>
      </g>
      <g id="g6341" fill="#000000">
       <path d="m578.59576,264.07751l0,-1.942c0,-0.538 0.151,-1.035 0.743,-1.035c0.592,0 0.743,0.497 0.743,1.035l0,1.942l0.384,0l0,-2.082c0,-0.725 -0.421,-1.28 -1.127,-1.28c-0.706,0 -1.127,0.555 -1.127,1.28l0,2.082l0.384,0z" id="path6343" fill-rule="nonzero" fill="#ffffff"/>
      </g>
      <g id="g6345" fill="#000000">
       <path d="m581.34839,261.16131l0.135,0c0.783,0 1.461,0.314 1.461,1.27c0,0.961 -0.678,1.271 -1.461,1.271l-0.135,0l0,-2.541zm-0.384,2.916l0.637,0c0.944,0 1.727,-0.532 1.727,-1.628c0,-1.122 -0.768,-1.663 -1.74,-1.663l-0.624,0l0,3.291z" id="path6347" fill-rule="nonzero" fill="#ffffff"/>
      </g>
      <path d="m584.08476,260.7854l-0.384,0l0,3.292l0.384,0l0,-3.292z" id="path6349" fill-rule="nonzero" fill="#ffffff"/>
      <g id="g6351" fill="#000000">
       <path d="m587.28497,262.4318c0,0.725 -0.506,1.332 -1.229,1.332c-0.722,0 -1.228,-0.607 -1.228,-1.332c0,-0.751 0.563,-1.332 1.228,-1.332c0.666,0 1.229,0.581 1.229,1.332m0.384,0c0,-0.978 -0.722,-1.715 -1.613,-1.715c-0.89,0 -1.612,0.737 -1.612,1.715c0,0.943 0.731,1.715 1.612,1.715c0.882,0 1.613,-0.772 1.613,-1.715" id="path6353" fill-rule="nonzero" fill="#ffffff"/>
      </g>
      <g id="g6355" fill="#000000">
       <path d="m592.02569,262.4448l0,-0.131c0,-0.904 -0.596,-1.598 -1.457,-1.598c-0.862,0 -1.556,0.795 -1.556,1.707c0,0.947 0.711,1.725 1.596,1.725c0.478,0 0.952,-0.231 1.254,-0.638l-0.269,-0.275c-0.221,0.323 -0.593,0.537 -0.968,0.537c-0.69,0 -1.229,-0.598 -1.229,-1.335c0,-0.691 0.531,-1.345 1.196,-1.345c0.478,0 0.992,0.44 1.008,0.978l-0.796,0l0,0.375l1.221,0z" id="path6357" fill-rule="nonzero" fill="#ffffff"/>
      </g>
      <g id="g6359" fill="#000000">
       <path d="m594.22284,262.75051l0,1.327l0.384,0l0,-3.291l-0.384,0l0,1.579l-1.465,0l0,-1.579l-0.384,0l0,3.291l0.384,0l0,-1.327l1.465,0z" id="path6361" fill-rule="nonzero" fill="#ffffff"/>
      </g>
      <path d="m595.53476,260.7854l-0.384,0l0,3.292l0.384,0l0,-3.292z" id="path6363" fill-rule="nonzero" fill="#ffffff"/>
      <g id="g6365" fill="#000000">
       <path d="m596.46094,261.1527l0.294,0c0.355,0 0.726,0.113 0.726,0.581c0,0.462 -0.44,0.559 -0.783,0.559l-0.237,0l0,-1.14zm0,1.466l0.098,0c0.364,0 0.661,0.079 0.661,0.551c0,0.463 -0.294,0.541 -0.653,0.541l-0.106,0l0,-1.092zm-0.384,1.459l0.376,0c0.579,0 1.126,-0.161 1.126,-0.904c0,-0.239 -0.122,-0.519 -0.331,-0.624l0,-0.008c0.364,-0.071 0.617,-0.45 0.617,-0.834c0,-0.66 -0.526,-0.922 -1.069,-0.922l-0.719,0l0,3.292z" id="path6367" fill-rule="nonzero" fill="#ffffff"/>
      </g>
      <g id="g6369" fill="#000000">
       <path d="m598.67834,261.16131l0.935,0l0,-0.375l-1.319,0l0,3.291l0.384,0l0,-2.916z" id="path6371" fill-rule="nonzero" fill="#ffffff"/>
      </g>
      <path d="m600.23676,260.7854l-0.384,0l0,3.292l0.384,0l0,-3.292z" id="path6373" fill-rule="nonzero" fill="#ffffff"/>
      <g id="g6375" fill="#000000">
       <path d="m569.81055,266.27111c0.946,0.371 2.005,1.383 2.472,2.749l-2.228,0l0,0.499l2.879,0c-0.056,-0.256 -0.214,-1.012 -0.823,-1.901c0.253,-0.216 0.879,-0.76 1.449,-1.36l-0.404,-0.436c-0.175,0.22 -0.487,0.61 -1.336,1.402c-0.299,-0.366 -0.895,-1.027 -1.713,-1.383l-0.296,0.43z" id="path6377" fill-rule="nonzero" fill="#ffffff"/>
      </g>
      <g id="g6379" fill="#000000">
       <path d="m575.04553,268.1542c0.184,-0.083 0.544,-0.248 0.994,-0.65c0.377,0.517 0.475,1.008 0.514,1.195l-1.499,0c-0.425,-0.628 -0.789,-0.898 -1.127,-1.108l-0.321,0.385c0.749,0.417 1.139,0.97 1.434,1.791l0.519,-0.105c-0.082,-0.193 -0.133,-0.312 -0.227,-0.487l1.825,0c-0.112,-0.718 -0.48,-2.821 -3.007,-3.45l-0.274,0.454c0.29,0.051 1.019,0.179 1.82,0.935c-0.428,0.403 -0.818,0.6 -0.986,0.687l0.335,0.353z" id="path6381" fill-rule="nonzero" fill="#ffffff"/>
      </g>
      <g id="g6383" fill="#000000">
       <path d="m577.48425,266.4224c1.615,0.142 2.348,0.665 2.904,2.492l0.464,-0.22c-0.583,-1.736 -1.307,-2.588 -3.248,-2.822l-0.12,0.55zm3.217,2.744c-0.098,0.413 -0.18,0.6 -0.223,0.701l0.348,0.083c0.12,-0.265 0.201,-0.568 0.231,-0.678l-0.356,-0.106zm-0.625,-0.096c-0.06,0.312 -0.115,0.495 -0.202,0.738l0.352,0.082c0.107,-0.275 0.146,-0.394 0.218,-0.728l-0.368,-0.092zm-1.632,-1.517c-0.497,0.29 -0.994,0.463 -1.204,0.532l0.196,0.476c0.16,-0.049 0.798,-0.252 1.205,-0.49l-0.197,-0.518zm0.33,1.063c-0.425,0.23 -0.827,0.385 -1.196,0.5l0.206,0.481c0.646,-0.206 0.968,-0.362 1.208,-0.481l-0.218,-0.5z" id="path6385" fill-rule="nonzero" fill="#ffffff"/>
      </g>
      <g id="g6387" fill="#000000">
       <path d="m585.33777,266.4224c1.615,0.142 2.348,0.665 2.904,2.492l0.464,-0.22c-0.583,-1.736 -1.307,-2.588 -3.248,-2.822l-0.12,0.55zm3.217,2.744c-0.098,0.413 -0.18,0.6 -0.223,0.701l0.348,0.083c0.12,-0.265 0.201,-0.568 0.231,-0.678l-0.356,-0.106zm-0.625,-0.096c-0.06,0.312 -0.115,0.495 -0.202,0.738l0.352,0.082c0.107,-0.275 0.146,-0.394 0.218,-0.728l-0.368,-0.092zm-1.632,-1.517c-0.497,0.29 -0.994,0.463 -1.204,0.532l0.196,0.476c0.16,-0.049 0.798,-0.252 1.205,-0.49l-0.197,-0.518zm0.33,1.063c-0.424,0.23 -0.827,0.385 -1.196,0.5l0.206,0.481c0.647,-0.206 0.968,-0.362 1.208,-0.481l-0.218,-0.5z" id="path6389" fill-rule="nonzero" fill="#ffffff"/>
      </g>
      <g id="g6391" fill="#000000">
       <path d="m592.59576,269.2904c-0.03,0.184 -0.112,0.491 -0.184,0.665l0.351,0.068c0.081,-0.225 0.12,-0.362 0.18,-0.646l-0.347,-0.087zm-0.45,0.697c0.078,-0.193 0.12,-0.349 0.18,-0.638l-0.129,-0.018l0,-0.009l0.257,0c-0.072,-1.993 -1.01,-3.124 -2.617,-3.492l-0.27,0.491c0.69,0.142 2.108,0.445 2.339,2.506l-2.712,0l0,0.495l2.746,0c-0.038,0.229 -0.077,0.366 -0.162,0.601l0.368,0.064z" id="path6393" fill-rule="nonzero" fill="#ffffff"/>
      </g>
      <g id="g6395" fill="#000000">
       <path d="m596.04468,267.9159c0,-0.72 -0.124,-1.283 -0.622,-1.686c-0.389,-0.317 -0.788,-0.398 -1.653,-0.499l-0.158,0.504c1.097,0.073 1.928,0.256 1.928,1.438l0,1.984l0.505,0l0,-1.741zm-2.163,-0.83l-0.496,0l0,2.488l0.496,0l0,-2.488z" id="path6397" fill-rule="nonzero" fill="#ffffff"/>
      </g>
      <g id="g6399" fill="#000000">
       <path d="m598.80334,269.87681c-0.034,-0.151 -0.073,-0.316 -0.176,-0.582l1.847,0l0,-0.453l-1.423,0l0,-0.651l1.316,0l0,-0.453l-1.316,0l0,-0.656l1.316,0l0,-0.449l-1.316,0l0,-1.027l-0.462,0l0,3.236l-0.163,0c-0.287,-0.564 -0.518,-0.825 -0.651,-0.981l-0.292,0.39c0.468,0.485 0.742,1.213 0.845,1.681l0.475,-0.055zm-1.846,-1.865l-0.009,0c-0.145,-0.202 -0.262,-0.316 -0.377,-0.426l-0.197,0.453c0.475,0.477 0.762,0.999 0.951,1.889l0.454,-0.083c-0.06,-0.22 -0.158,-0.601 -0.369,-1.054l0,-3.185l-0.453,0l0,2.406z" id="path6401" fill-rule="nonzero" fill="#ffffff"/>
      </g>
      <path d="m601.69476,268.5804l2.091,0l0,0.779l-2.091,0l0,-0.779zm-0.423,1.209l2.93,0l0,-1.641l-2.93,0l0,1.641zm2.003,-3.519l0.912,0l0,1.086l-0.912,0l0,-1.086zm-2.412,1.508l1.666,0l0,-2.122l-0.411,0l0,0.188l-0.846,0l0,-0.22l-0.409,0l0,2.154zm0.409,-1.508l0.849,0l0,1.086l-0.849,0l0,-1.086zm1.589,1.508l1.739,0l0,-2.154l-0.411,0l0,0.22l-0.914,0l0,-0.22l-0.414,0l0,2.154z" id="path6403" fill-rule="nonzero" fill="#ffffff"/>
      <g id="g6405" fill="#000000">
       <path d="m581.25653,266.5523c1.295,0.941 1.732,1.792 1.8,1.937l-1.823,0.002l0,0.504l2.118,0l0,0.767l0.477,0l0,-0.767l0.971,0l0,-0.516l-0.967,0l0.001,-2.684l-0.482,0l0.001,2.282c0,0 -0.387,-0.935 -1.815,-1.96l-0.281,0.435z" id="path6407" fill-rule="nonzero" fill="#ffffff"/>
      </g>
      <g id="g6409" fill="#000000">
       <path d="m569.67047,264.97221l35.219,0" id="path6411" fill-rule="nonzero" fill="#ffffff"/>
      </g>
      <g id="g6413" fill="#000000">
       <path d="m569.67047,265.0012l35.219,0l0,-0.058l-35.219,0" id="path6415" fill-rule="nonzero" fill="#ffffff"/>
      </g>
      <g id="g6417" fill="#000000">
       <path d="m570.05737,276.8859l0,-0.047l-0.076,-0.026l-0.208,0.005l-0.208,-0.009l-0.011,0.021l0.096,0.06c0.139,-0.026 0.26,0.043 0.387,0.008l0.02,-0.012z" id="path6419" fill-rule="nonzero" fill="#ffffff"/>
      </g>
      <g id="g6421" fill="#000000">
       <path d="m565.05493,272.24551l-0.036,-0.043l-0.068,-0.09l-0.048,-0.055l-0.144,-0.116l-0.147,-0.097c-0.096,-0.086 -0.228,-0.151 -0.384,-0.176l-0.188,-0.021c-0.108,0.012 -0.227,0.012 -0.315,0.06l-0.096,0.03c-0.127,0.066 -0.176,0.114 -0.224,0.252l-0.004,0.034l-0.008,0l-0.008,0.107l-0.012,0.03l-0.02,0.234l0,0.035l0.004,0l0.004,0.171l0.015,0.034l0.017,0.034l0.008,0l0.004,0.055l0.003,0l0.013,0.044l0,0.157l0.016,0.03l0.007,0.039l0.009,0.068l0.008,0l0.004,0.039l0.004,0l0.012,0.038l0,0.026l0.008,0l0.008,0.046l0.007,0l0.073,0.137l0.044,0.056c0.096,0.059 0.179,0.146 0.331,0.154l0.176,0.06c0.096,-0.005 0.184,-0.03 0.28,-0.048l0.2,-0.097l0.119,-0.129l0.008,0l0.009,-0.026l0.007,0l0.036,-0.068c0.157,-0.306 0.227,-0.5 0.256,-0.855l0.004,-0.038l0.008,0l0,-0.111zm0.303,-0.008l-0.107,0.059l-0.032,0.026l-0.024,0.022l-0.016,0.068l-0.009,0l-0.011,0.188l-0.004,0l-0.008,0.05l-0.013,0.078l-0.015,0.124l-0.008,0l-0.012,0.06l-0.004,0l-0.016,0.051l-0.016,0.06l-0.032,0.094l-0.008,0l-0.019,0.051c-0.151,0.369 -0.235,0.451 -0.62,0.546l-0.12,0.039c-0.128,0.005 -0.268,0 -0.383,-0.043c-0.092,0.01 -0.141,-0.042 -0.204,-0.076l-0.156,-0.111l-0.045,-0.069l-0.011,-0.034l-0.048,-0.064l-0.024,-0.03l-0.012,-0.047l-0.005,0l-0.019,-0.038l0,-0.013l-0.012,-0.043l-0.004,0l-0.012,-0.064l-0.008,0l0,-0.021l-0.008,-0.077l-0.008,0l-0.008,-0.099l-0.008,0l-0.012,-0.055l-0.004,0l-0.012,-0.072l-0.004,0l-0.004,-0.052l-0.008,0l0,-0.043l-0.008,0l0.008,-0.072l-0.08,-0.133l-0.004,0l0.004,-0.043l0.004,-0.012l0.076,-0.098l-0.008,0l0,-0.031l-0.004,-0.106l0.012,-0.065l0.012,-0.068l0.004,-0.021l0.008,0l0.004,-0.039l0.016,-0.051l0.016,-0.034l0.064,-0.095l0.135,-0.127l0.128,-0.103c0.132,-0.034 0.256,-0.115 0.416,-0.077c0.092,0.013 0.208,0.009 0.268,0.069l0.112,0.021l0.088,0.025l0.187,0.099l0.132,0.099c0.092,0.05 0.136,0.135 0.212,0.196l0.072,0.09l0.028,0.025l0.164,0.021l0.047,0.065" id="path6423" fill-rule="nonzero" fill="#ffffff"/>
      </g>
      <g id="g6425" fill="#000000">
       <path d="m561.74274,273.40771l0.012,-0.004l-0.004,0l0,-0.008l-0.004,0l-0.028,-0.107l-0.008,0l-0.012,-0.065l-0.004,0l-0.012,-0.08l-0.004,0l-0.008,-0.048l-0.012,-0.073l-0.008,0l0,-0.038l-0.008,0l-0.028,-0.056l-0.048,0.03l-0.003,0.034l0.007,0l0.008,0.12l0.008,0l0.012,0.055l0.004,0l0.004,0.048l0.008,0l0.008,0.063l0.008,0l0.02,0.065l0.008,0.026l0.016,0.026l0,0.016l0.008,0.008l0.036,0.026l0.024,-0.038z" id="path6427" fill-rule="nonzero" fill="#ffffff"/>
      </g>
      <g id="g6429" fill="#000000">
       <path d="m561.83862,273.1343l0.004,-0.018l0.008,-0.042l-0.008,0l-0.012,-0.069l-0.068,-0.02l-0.016,0.089l0.016,0.038l0.076,0.022z" id="path6431" fill-rule="nonzero" fill="#ffffff"/>
      </g>
      <g id="g6433" fill="#000000">
       <path d="m561.98657,273.04441l0.016,-0.026l0,-0.068l-0.028,-0.025l-0.064,0.059l0.004,0.038l0.012,0.01l0.06,0.012z" id="path6435" fill-rule="nonzero" fill="#ffffff"/>
      </g>
      <g id="g6437" fill="#000000">
       <path d="m562.21014,272.92051l0.008,-0.047l-0.024,-0.03l-0.067,0.026l-0.017,0.043l0.004,0.046l0.06,0l0.036,-0.038z" id="path6439" fill-rule="nonzero" fill="#ffffff"/>
      </g>
      <g id="g6441" fill="#000000">
       <path d="m563.82037,272.54891l-0.024,0.03l-0.008,0.064l0.028,0.013l0.012,-0.013l0.004,-0.021l-0.012,-0.073m0.096,0.111l-0.017,0.09l-0.007,0l-0.008,0.098l-0.024,0.047l-0.064,0.065c-0.128,0.042 -0.168,-0.069 -0.223,-0.129l-0.025,-0.034l-0.012,-0.043l-0.004,0l0,-0.026l-0.012,-0.038l-0.007,0l-0.008,-0.175l0.015,-0.158l0.012,-0.022l0.088,-0.141l0.168,0.009l0.048,0.03l0.056,0.102l0.007,0l0.009,0.047c-0.009,0.103 0.02,0.179 0.008,0.278" id="path6443" fill-rule="nonzero" fill="#ffffff"/>
      </g>
      <g id="g6445" fill="#000000">
       <path d="m560.45618,271.8823l0.016,-0.026l0.031,-0.047l0.009,-0.046l-0.048,-0.056l-0.228,-0.06l-0.127,0.064l0.015,0.034l0.004,0l0.013,0.052l0.008,0l0.007,0.047l0.044,0.056l0.188,0.038l0.068,-0.056z" id="path6447" fill-rule="nonzero" fill="#ffffff"/>
      </g>
      <g id="g6449" fill="#000000">
       <path d="m564.60736,270.3696c-0.164,-0.004 -0.319,0 -0.479,0l-0.168,0.021l-0.032,0.03l0.027,0.013l0.36,-0.038c0.1,0.03 0.196,-0.014 0.292,-0.018l0,-0.008zm3.424,-0.411c-0.147,0.052 -0.319,0.052 -0.46,0.107c-0.135,0.014 -0.26,0.056 -0.407,0.044l-0.143,0.029l-0.136,0.026c-0.104,0.021 -0.216,0.026 -0.328,0.034c-0.096,0.052 -0.232,0.018 -0.32,0.068c-0.16,0.009 -0.283,0.085 -0.443,0.065c-0.113,0.004 -0.204,0.046 -0.324,0.034c-0.115,0.034 -0.256,0.016 -0.371,0.038l-0.217,0.017c-0.151,0.017 -0.311,0.034 -0.467,0.017c-0.136,0.026 -0.279,0.047 -0.432,0.043l-0.195,0.03l-0.036,-0.077l-0.008,0l0.004,-0.043l0.096,-0.111c0.12,-0.033 0.26,-0.081 0.395,-0.043c0.108,-0.004 0.212,-0.02 0.316,-0.008c0.1,-0.017 0.204,0.004 0.3,-0.022l0.195,-0.016c0.128,-0.009 0.252,0.004 0.376,-0.017c0.096,0.025 0.176,-0.022 0.272,-0.026l0.343,-0.026c0.117,-0.038 0.256,-0.017 0.372,-0.047c0.108,-0.004 0.216,-0.004 0.316,-0.03l0.224,-0.021l0.187,-0.039l0.168,-0.026c0.12,-0.042 0.263,-0.038 0.384,-0.081l0.207,-0.042l0.172,0.022l0.008,0.012l-0.048,0.089" id="path6451" fill-rule="nonzero" fill="#ffffff"/>
      </g>
      <g id="g6453" fill="#000000">
       <path d="m563.17718,269.86111c0.12,-0.038 0.271,-0.008 0.392,-0.064l0.171,-0.039l0.108,-0.038c0.1,0 0.2,-0.034 0.303,-0.038l0.085,-0.095l0,-0.051c-0.152,0.009 -0.279,0.069 -0.428,0.085l-0.192,0.044c-0.228,0.008 -0.419,0.132 -0.655,0.081l-0.14,0.089l-0.015,0.052l0.151,-0.008l0.22,-0.018" id="path6455" fill-rule="nonzero" fill="#ffffff"/>
      </g>
      <g id="g6457" fill="#000000">
       <path d="m567.85577,268.71171c-0.104,-0.043 -0.215,0.004 -0.315,0.017c-0.145,0.06 -0.316,0.098 -0.464,0.154l0,0.004l-0.203,0.034c-0.105,0.039 -0.22,0.055 -0.337,0.073l-0.183,0.056c-0.164,0.073 -0.368,0.132 -0.539,0.192c-0.169,0.026 -0.312,0.089 -0.464,0.137l-0.16,0.072l0.004,0.013c0.092,0.009 0.164,-0.03 0.244,-0.043c0.116,-0.06 0.271,-0.076 0.399,-0.115l0.132,-0.017c0.116,-0.035 0.252,-0.047 0.356,-0.103c0.1,-0.025 0.175,-0.089 0.288,-0.098c0.136,-0.051 0.291,-0.081 0.427,-0.128l0.252,-0.051c0.092,-0.026 0.195,-0.034 0.28,-0.073l0.132,-0.039l0.155,-0.063l0.004,0l-0.008,-0.022zm0.224,0.008l-0.06,0.069l-0.136,0.098c-0.088,-0.004 -0.136,0.056 -0.224,0.047c-0.072,0.034 -0.132,0.082 -0.232,0.077c-0.156,0.056 -0.343,0.082 -0.515,0.116l-0.184,0.081l-0.203,0.064l-0.148,0.059l-0.192,0.056c-0.224,0.073 -0.463,0.099 -0.695,0.163c-0.1,0.029 -0.224,0.021 -0.312,0.067c-0.387,0.06 -0.743,0.171 -1.118,0.249c-0.081,0.051 -0.209,0.043 -0.304,0.081l-0.092,0.017c-0.092,0.021 -0.2,0.026 -0.288,0.056l-0.096,0.016l-0.208,0.065c-0.099,0.06 -0.235,0.008 -0.32,-0.03l-0.015,-0.021l0.012,-0.065l0.107,0.043l0.156,-0.043c0.14,-0.017 0.264,-0.056 0.392,-0.094l0.056,-0.021l0.136,-0.051c0.119,-0.013 0.24,0 0.339,-0.047c0.125,-0.018 0.228,-0.077 0.36,-0.047l0.044,-0.03c0.088,-0.004 0.156,-0.052 0.224,-0.082l-0.076,-0.038l-0.06,-0.073l0.012,-0.008c0.107,-0.038 0.22,-0.055 0.331,-0.094c0.136,-0.021 0.252,-0.09 0.396,-0.098c0.216,-0.073 0.435,-0.124 0.648,-0.197c0.103,-0.034 0.235,-0.051 0.331,-0.098l0.084,-0.031c0.107,-0.016 0.18,-0.08 0.292,-0.085c0.119,-0.034 0.239,-0.064 0.356,-0.102l0.247,-0.065c0.156,-0.038 0.324,-0.068 0.471,-0.119c0.104,-0.008 0.196,0.004 0.288,-0.026l0.196,0.077l0,0.064" id="path6459" fill-rule="nonzero" fill="#ffffff"/>
      </g>
      <g id="g6461" fill="#000000">
       <path d="m560.26037,269.2972l0.012,-0.043l-0.028,-0.025l-0.212,0.017l-0.004,0.051l0.024,0.034l0.16,0.018l0.048,-0.052z" id="path6463" fill-rule="nonzero" fill="#ffffff"/>
      </g>
      <g id="g6465" fill="#000000">
       <path d="m566.08972,267.7246l-0.024,0.008l-0.232,0.103l-0.208,0.107l-0.203,0.107l-0.228,0.08c-0.104,0.048 -0.228,0.074 -0.328,0.129c-0.104,0.03 -0.2,0.064 -0.279,0.129l-0.168,0.055c-0.084,0.034 -0.148,0.09 -0.24,0.111l-0.124,0.043l-0.227,0.111l-0.1,0.069l0.028,0.034c0.136,-0.014 0.228,-0.099 0.367,-0.116l0.052,-0.017c0.12,-0.052 0.256,-0.081 0.363,-0.149c0.093,-0.03 0.192,-0.069 0.272,-0.107l0.192,-0.099l0.116,-0.064c0.096,-0.038 0.204,-0.085 0.283,-0.141l0.177,-0.077l0.115,-0.046l0.24,-0.133l0.156,-0.115l0,-0.022zm0.515,-0.222l-0.119,0.093l-0.125,0.117l-0.251,0.175c-0.108,0.093 -0.267,0.136 -0.38,0.23l-0.156,0.081l-0.068,0.03l-0.079,0.048c-0.092,0.004 -0.128,0.072 -0.204,0.089l-0.164,0.072l-0.216,0.087l-0.187,0.072l-0.156,0.063c-0.089,0.061 -0.204,0.091 -0.308,0.133c-0.103,0.013 -0.192,0.06 -0.288,0.081l-0.011,0.014l-0.24,0.008l-0.045,-0.051l-0.011,-0.048l-0.004,0l0.024,-0.085l0.12,-0.107c0.152,-0.056 0.295,-0.136 0.448,-0.187l0.215,-0.09c0.08,-0.065 0.211,-0.073 0.303,-0.12c0.081,-0.078 0.22,-0.072 0.313,-0.141c0.147,-0.017 0.226,-0.116 0.375,-0.133l0.011,-0.012l0.196,-0.094l0.144,-0.056c0.124,-0.035 0.236,-0.085 0.324,-0.162c0.092,-0.008 0.164,-0.06 0.252,-0.081l0.083,-0.048l0.188,-0.02l0.021,0.029l-0.005,0.013" id="path6467" fill-rule="nonzero" fill="#ffffff"/>
      </g>
      <g id="g6469" fill="#000000">
       <path d="m562.45398,266.7761l0.016,0l0.024,-0.034c0.076,-0.039 0.139,-0.09 0.231,-0.111l0.093,-0.081l-0.004,-0.048l-0.008,-0.016l0.087,-0.052c0.104,-0.017 0.172,-0.069 0.264,-0.089l0.064,-0.056l0.032,-0.069l0.02,-0.016l0.016,-0.039l0.008,-0.064l0.008,0c0.153,-0.17 0.238,-0.305 0.387,-0.47l0.036,-0.064l0.009,0c0.105,-0.144 0.302,-0.3 0.355,-0.466l0.044,-0.068c0.064,-0.09 0.158,-0.233 0.184,-0.347l0.012,-0.157l0.012,-0.06l0.004,0l0.02,-0.035l0.016,-0.119l0.007,0l0.029,-0.068l0.016,-0.035c0.023,-0.088 0.127,-0.121 0.16,-0.269l0.012,-0.026l0.015,-0.063l0.009,-0.035l0.012,-0.175l0.039,-0.103l0.025,-0.042l0.035,-0.048l0.089,-0.076l0.132,-0.133l0.019,-0.039l0.016,-0.175l-0.008,0l-0.012,-0.059l-0.004,0l-0.004,-0.06l-0.007,0l0.003,-0.008l-0.003,0l0,-0.009l0.007,0l0.004,-0.239l0.016,-0.214l0.02,-0.115l0.004,-0.052l0.008,0l0,-0.022l0.005,-0.076l0.007,-0.043l0.004,0l-0.004,-0.197l0.044,-0.059l-0.004,-0.073l-0.008,0l-0.008,-0.06l-0.008,0l-0.004,-0.034l-0.004,0l-0.012,-0.055l-0.044,-0.044l-0.044,0.022l0,0.06l0.008,0l0.013,0.081l0.015,0.081l0,0.026l0.008,0l-0.004,0.051l-0.1,0.09l-0.008,0.051l0.008,0l0.013,0.048l0,0.064l0.004,0l0,0.051l0.007,0l-0.007,0.077l-0.017,0.038l-0.012,0.038l-0.012,0.018l-0.012,0.055l-0.008,0l-0.003,0.141l-0.004,0.086l0.007,0l0,0.141l-0.007,0l0,0.153l0.007,0l0,0.073l0.008,0l-0.024,0.137l-0.008,0l-0.015,0.03l-0.081,0.081l-0.083,0.085l-0.081,0.103l-0.007,0.038l-0.008,0l-0.004,0.039l-0.009,0.102l-0.031,0.082l-0.009,0.064l-0.007,0l-0.016,0.094l-0.012,0.026l-0.016,0.034l-0.064,0.119l-0.004,0l-0.02,0.03l-0.036,0.069l-0.012,0.021l-0.028,0.039l-0.008,0l-0.016,0.042l-0.016,0.055l-0.004,0.04l-0.008,0l-0.012,0.111l-0.008,0.05l-0.016,0.167l-0.008,0l-0.016,0.043l-0.04,0.081l-0.024,0.052l-0.004,0l-0.02,0.03l-0.035,0.063l-0.004,0l-0.021,0.039c-0.121,0.182 -0.152,0.268 -0.36,0.432l-0.092,0.123l-0.003,0l-0.033,0.056c-0.136,0.225 -0.286,0.223 -0.363,0.462l-0.08,0.123l-0.007,0l-0.136,0.077l-0.2,0.09l-0.005,0.038l-0.008,0l-0.024,0.056c-0.1,0 -0.119,0.085 -0.183,0.12l-0.176,0.098l-0.035,0.111l0.051,0.021l0.096,-0.051" id="path6471" fill-rule="nonzero" fill="#ffffff"/>
      </g>
      <g id="g6473" fill="#000000">
       <path d="m560.20044,262.926l-0.008,-0.133l-0.008,0l-0.004,-0.038l-0.004,0l-0.012,-0.145l0.008,-0.017l-0.004,0l-0.004,-0.154l-0.008,0l-0.016,-0.06l0,-0.013l-0.048,-0.017l-0.052,0.021l-0.036,0.069l-0.015,0.021l-0.021,0.043l-0.02,0.056l-0.04,0.055l-0.004,0.013l-0.096,0.132l-0.019,0.022l-0.041,0.081l-0.004,0.038l-0.008,0l-0.035,0.06l-0.061,0.017l-0.032,0.026l-0.043,0.06l-0.14,0.119c-0.096,0.039 -0.148,0.129 -0.284,0.115l-0.164,-0.051l0,-0.012l-0.211,0.008l-0.004,0.013l0.004,0.064l0.164,0.149l0.083,0.065l0.124,0.094l0.112,0.111l0.128,0.103l0.1,0.072c0.088,0.034 0.156,0.094 0.252,0.124l0.079,-0.013l0.045,-0.042l0.043,-0.048l0.02,-0.043l0.044,-0.05l0.032,-0.039l0.016,-0.038l0.02,-0.078l0.008,0l0.017,-0.047l0.019,-0.054l0.016,-0.048l0.008,0l0.012,-0.059l0.012,-0.026l0.008,-0.03l0.028,-0.171l0.008,0l0.012,-0.21l0.004,0l0.02,-0.103l-0.008,-0.012l0.008,0zm0.084,0.103l-0.008,0.102l-0.02,0.111l0.004,0l-0.016,0.103l-0.008,0l-0.008,0.081l-0.008,0l-0.008,0.038l-0.012,0.111l-0.016,0.044l-0.008,0l-0.024,0.093l-0.012,0.056l-0.008,0l-0.016,0.073l-0.02,0.038l-0.016,0.038l-0.016,0.035l-0.011,0.012l-0.145,0.133l-0.14,0.09c-0.152,0.043 -0.252,-0.068 -0.339,-0.137l-0.084,-0.068l-0.168,-0.073l-0.044,-0.043l-0.043,-0.043l-0.064,-0.055l-0.081,-0.064c-0.087,-0.043 -0.128,-0.129 -0.207,-0.188l-0.036,-0.038c-0.078,-0.084 -0.146,-0.175 -0.224,-0.262l0,-0.038l0.008,0l0.004,-0.026l0.056,-0.073c0.164,-0.042 0.324,0.014 0.475,0.039l0.172,0.034c0.096,0.026 0.128,-0.051 0.191,-0.085l0.093,-0.094l0.107,-0.073l0.005,-0.017l0.008,0c0.07,-0.104 0.167,-0.197 0.228,-0.308l0.039,-0.072l0.008,0l0.008,-0.026l0.016,-0.029l0.008,0l0.021,-0.06l0.007,0l0.04,-0.09l0.02,-0.025l0.164,-0.086l0.08,0.042l0.008,0.009l0.003,0.039l0.017,0.188l0.008,0l0,0.076l-0.008,0l0,0.133l0.008,0l0,0.051l0.004,0l0.003,0.052l0.009,0l0.012,0.085l0.004,0l0.004,0.038l0.004,0l0,0.056l-0.028,0.073" id="path6475" fill-rule="nonzero" fill="#ffffff"/>
      </g>
      <g id="g6477" fill="#000000">
       <path d="m563.02136,260.42631l-0.028,-0.03l-0.104,0.018c-0.135,0.104 -0.237,0.245 -0.348,0.375l-0.012,0.013c-0.051,0.064 -0.167,0.098 -0.263,0.085l-0.204,0.043c-0.108,0.026 -0.192,-0.038 -0.292,-0.012l-0.036,0.05l-0.004,0.005l0.004,0l0.004,0.072l0.028,0.03l0.049,0.039l0.051,0.039l0.156,0.136l0,0.009l0.044,0.055l0.12,0.129l0.076,0.063c0.068,0.078 0.148,0.137 0.267,0.163l0.136,0.013l0.128,-0.112l0.024,-0.03l0.016,-0.025l0.04,-0.102l0.008,0l0.012,-0.039l0.012,-0.022l0.02,-0.042l0.012,-0.064l0.008,-0.059c0.027,-0.095 -0.005,-0.244 0.027,-0.334l0.013,-0.069l0.008,0l0.011,-0.196l0.005,0l0.008,-0.102l0.012,-0.061l-0.008,-0.038m0.132,0.034l-0.017,0.167l-0.007,0.081l0.004,0l-0.012,0.056l-0.004,0.017l-0.036,0.167l-0.004,0l0,0.02l0.004,0l0,0.133l-0.009,0.175l-0.007,0l-0.008,0.077l-0.012,0.03l-0.016,0.043l-0.008,0l-0.008,0.052l-0.012,0.02l-0.016,0.035l-0.004,0l-0.012,0.025l-0.036,0.039l-0.08,0.107l-0.168,0.149l-0.12,0.026c-0.119,0.026 -0.171,-0.064 -0.267,-0.09l0,-0.004l-0.128,-0.094l-0.2,-0.197l-0.02,-0.034l0,-0.017l-0.016,-0.03l-0.016,-0.03l-0.12,-0.145l-0.111,-0.09l-0.053,-0.077l-0.019,-0.038l-0.06,-0.073l0,-0.06l0.023,-0.034c0.064,-0.073 0.212,-0.111 0.324,-0.073l0.14,-0.004l0.227,-0.008l0.004,0.046l0.009,0l0.004,-0.038l-0.008,0l0.012,-0.034l0.024,0l0.147,-0.051l0,-0.008l0.068,-0.061l0.017,-0.034l0.068,-0.094l0.015,-0.021l0.064,-0.086l0.008,0l0.068,-0.068l0.192,-0.055l0.164,0.03l0.028,0.055l0.008,0l0,0.098l-0.008,0z" id="path6479" fill-rule="nonzero" fill="#ffffff"/>
      </g>
      <g id="g6481" fill="#000000">
       <path d="m575.83899,270.2757l0.004,-0.034l0.028,-0.154l0.012,-0.052l0.008,-0.076l0.008,0l0.02,-0.081l0.008,0l0.008,-0.086l0.008,0l0.008,-0.051l0.008,0l0.004,-0.034l0.036,-0.133l0.004,0l0.004,-0.051l0.016,-0.098l0.008,0l0.008,-0.068l0.114,0l-0.003,0.055l-0.008,0l-0.003,0.039l-0.012,0.072l-0.009,0l-0.011,0.051l-0.004,0l-0.016,0.052l-0.012,0.055l-0.008,0.094l-0.008,0l-0.013,0.051l-0.003,0l-0.016,0.056l-0.004,0.055l-0.012,0.022l-0.029,0.149l-0.003,0.052l-0.008,0l-0.008,0.055l-0.012,0.03l-0.016,0.042l-0.008,0l-0.008,0.056l-0.008,0l-0.012,0.061l-0.032,0.076l-0.016,0.051l-0.008,0l-0.02,0.064l-0.016,0.035l-0.016,0.034l-0.02,0.047l-0.004,0l-0.02,0.094l-0.008,0l-0.02,0.085l-0.016,0.048l-0.016,0.03l-0.008,0l-0.019,0.059l-0.017,0.038l-0.028,0.073l-0.016,0.043l-0.007,0l-0.021,0.09l-0.016,0.038l-0.008,0l-0.015,0.06l-0.008,0l-0.021,0.081l-0.016,0.03l-0.016,0.034l-0.007,0l-0.021,0.06l-0.015,0.055l-0.017,0.043l-0.032,0.082l-0.015,0.046l-0.024,0.061l-0.008,0l-0.004,0.042l-0.013,0.047l-0.019,0.09l-0.005,0l-0.012,0.063l-0.011,0.022l-0.013,0.038l-0.008,0l-0.011,0.065l-0.004,0l-0.009,0.034l-0.011,0.06l-0.016,0.047l-0.009,0l-0.019,0.064l-0.017,0.038l-0.064,0.103l-0.047,0.055l-0.068,0.099l0.008,0.076l0.011,0.052l0.005,0l-0.005,0.055l-0.039,0.095l-0.016,0.042l-0.008,0l-0.008,0.026l-0.008,0l-0.02,0.038l-0.008,0l-0.008,0.026l-0.008,0l-0.028,0.051c-0.173,0.233 -0.267,0.451 -0.403,0.688l-0.04,0.082l-0.009,0l-0.036,0.059c-0.086,0.106 -0.164,0.23 -0.279,0.304l-0.104,0.085l-0.144,-0.051l0.024,-0.069l0.156,-0.09l0.168,-0.14l0.076,-0.078l0.111,-0.111l-0.036,-0.046l-0.059,-0.06l-0.024,-0.025l-0.012,-0.014l0.012,-0.042l0.012,-0.014l0.163,-0.059l0,-0.008l0.008,0c0.109,-0.131 0.206,-0.273 0.304,-0.415l0.016,-0.038l0.008,0l0.06,-0.099l0,-0.047l-0.008,0l-0.007,-0.056l-0.009,0l-0.044,-0.064l-0.008,-0.008l0.004,-0.021l0.052,-0.094l0.088,-0.091l0.004,-0.012l0.116,-0.133l0.02,-0.042l0.008,0l0.04,-0.099l0.019,-0.025l0.021,-0.064l0.008,0l0.012,-0.06l0.008,-0.064l0.015,-0.073l0.021,-0.038l0.024,-0.047l0.004,0l0.012,-0.052l0.007,0l0.013,-0.085l-0.004,0l0.008,-0.064l0.008,0l0.011,-0.051l0.013,-0.026l0.011,-0.06l0.017,-0.043l0.023,-0.034l0.021,-0.051l0.007,0l0.017,-0.072c0.037,-0.103 0.093,-0.202 0.136,-0.312l0.011,-0.069l0.008,0l0.013,-0.06l0.023,-0.093l0.009,0l0.007,-0.06l0.008,0l0.02,-0.073l0.008,0l0.017,-0.047l0.015,-0.034l0.021,-0.048l0.015,-0.042l0.008,0l0.041,-0.085l0.023,-0.065l0.016,-0.038l0.008,0l0.024,-0.068l0.016,-0.039l0.02,-0.064l0.008,0z" id="path6483" fill-rule="nonzero" fill="#ffffff"/>
      </g>
      <g id="g6485" fill="#000000">
       <path d="m563.69269,278.33451l0,-0.043l-0.008,0l-0.004,-0.038l-0.004,0l-0.012,-0.042l-0.024,-0.03l-0.068,-0.078l-0.152,0.052l-0.044,0.056l-0.023,0.024l-0.017,0.043l-0.012,0.026l-0.016,0.06l0.009,0l0,0.043l0.004,0l0.003,0.094l0.029,0.042l0.039,0.055l0.168,0.04l0.084,-0.082l0.024,-0.069l0.008,0l0.02,-0.106l0.004,-0.047l-0.008,0zm0.1,0.099l-0.012,0.102l-0.016,0.029l-0.032,0.048l-0.004,0.008l-0.036,0.034l-0.064,0.061c-0.068,0.042 -0.164,-0.005 -0.252,0.016l-0.072,-0.055l-0.04,-0.052l-0.039,-0.089l-0.004,0l-0.013,-0.056l-0.008,0l0,-0.085l0.008,0l0.013,-0.116l0.004,0l0.02,-0.093l0.015,-0.043l0.008,0l0.028,-0.064l0.08,-0.014l0.248,-0.025l0.044,0.035l0.06,0.085l0.016,0.026l0,0.008l0.044,0.085l0.008,0l-0.004,0.155" id="path6487" fill-rule="nonzero" fill="#ffffff"/>
      </g>
      <g id="g6489" fill="#000000">
       <path d="m570.13324,277.5355l0,-0.004l-0.064,0.064l-0.028,0.025l-0.068,0.09l-0.004,0.013l-0.124,0.116l-0.115,0.097l-0.14,0.125l-0.024,0.034l-0.008,0l-0.004,0.012l-0.024,0.039l0.164,-0.077c0.147,-0.171 0.281,-0.229 0.411,-0.371l0.02,-0.06l0.008,0l0.008,-0.095l-0.008,-0.008m-0.096,-0.419l-0.048,0.012l0.008,0.022l0.064,0.022l0.004,-0.008l-0.028,-0.048m-3.316,0.483l-0.025,0.059l0.117,0.044l0.015,-0.082l-0.107,-0.021m-0.788,-0.06l-0.036,-0.051l-0.175,-0.116l-0.26,-0.102c-0.151,-0.025 -0.255,-0.102 -0.392,-0.146l-0.2,-0.055l-0.223,-0.124l-0.052,-0.029c-0.143,-0.03 -0.272,-0.09 -0.379,-0.163l-0.248,-0.107c-0.199,-0.134 -0.39,-0.283 -0.528,-0.487l-0.051,-0.055l-0.168,0.055l-0.045,0.072l-0.015,0.035l-0.053,0.064l-0.007,0.026l-0.008,0l-0.04,0.059l-0.036,0.068l-0.02,0.052l-0.032,0.059l-0.012,0.052l-0.008,0l-0.016,0.043l-0.004,0.03l-0.008,0l-0.012,0.068l-0.012,0.069l-0.008,0l-0.004,0.06l-0.004,0.2l0.008,0.064l-0.008,0.081l0,0.15l0.004,0l0.012,0.051l0,0.154l-0.008,0l0,0.103l0.008,0l-0.012,0.09l-0.004,0l-0.012,0.063l-0.008,0l0,0.086l0.028,0.021l0.095,0.048l0.017,0.025l0.024,0.034l0,0.077l0.012,0l0,0.039l0.008,0l0.003,0.077l0.005,0l-0.005,0.089l-0.027,0.132l-0.056,0.069l-0.084,0.03l0,0.068l0.004,0l0.004,0.047l0.008,0l0.008,0.056l0.008,0l0.096,0.166l0.016,0.038l0.02,0.026l0.035,0.065l0.025,0.026l0.007,0.042l0.009,0l-0.012,0.06l-0.012,0.017l-0.024,0.038l-0.02,0.043l0.004,0l0,0.03l0.004,0c-0.008,0.111 0.019,0.209 0,0.316l0.008,0.004l-0.004,0.022l0.004,0l-0.008,0.115l-0.008,0l-0.008,0.064l-0.008,0l-0.016,0.077l-0.004,0.034l-0.008,0l-0.008,0.065l-0.008,0l-0.004,0.093c-0.024,0.094 -0.008,0.235 -0.012,0.351l0.007,0.141l0.005,0l0.012,0.038l0,0.146l0.008,0l0.012,0.085l0.004,0l0,0.069l0.016,0.008l0.032,-0.026c0.053,-0.129 0.107,-0.257 0.18,-0.375l0.031,-0.107l0.005,0l0.019,-0.069l0.008,0l0.017,-0.034l0.003,-0.018l0.008,-0.059l0.004,-0.004l-0.004,0l0,-0.124l-0.008,0l-0.011,-0.095l0.008,-0.004l-0.008,0l0.008,-0.004l-0.008,0l0,-0.03l0.008,0l0,-0.012l-0.008,0l0,-0.085l-0.004,0l-0.005,-0.091l-0.008,0l0.008,-0.137l-0.008,0l0,-0.076l-0.007,0l-0.004,-0.158l-0.004,0l0,-0.116l0.008,0l0.024,-0.025l0.083,0.077l0,0.016l0.004,0l0,0.095l0.013,0.145l0,0.038l0.004,0l-0.004,0.115l0,0.065l0.004,0l0.003,0.082l0.008,0l0.013,0.076l0,0.09l0.004,0l0.004,0.119l0.004,0l-0.004,0.005l0.004,0l0.011,0.222l0.004,0l0.013,0.077l0,0.034l0.007,0l0.012,0.06l0.004,0l0.012,0.064l0.004,0l0.012,0.098l0.009,0l0,0.137l-0.009,0l0,0.06l0.009,0l-0.004,0.004l0.004,0l0.007,0.06l0.008,0l0.008,0.069l0.008,0l0.012,0.055l0.004,0l0.012,0.046l0.02,0.018l0.072,-0.09l0.012,-0.043l0.024,-0.038l0.016,-0.03l0.02,-0.065l0.004,0l0.02,-0.038l0.012,-0.043l0.012,-0.03l0.012,-0.076l0.004,0l0.016,-0.039l0.012,-0.016l0.016,-0.039l0.02,-0.064l0.008,0l0.008,-0.048l0.008,0l0.019,-0.05l0.041,-0.069l0.016,-0.047l0.004,-0.038l0.008,0l0.008,-0.082l0.008,0l0.008,-0.123c0.007,-0.13 0.014,-0.28 0.103,-0.381l0.073,-0.077c0.063,-0.072 0.127,-0.141 0.247,-0.167l0.168,-0.111l0.116,-0.102l0.028,-0.055l0.008,0l0.016,-0.03c0.068,-0.124 0.103,-0.246 0.184,-0.355l0.04,-0.042c0.228,-0.442 0.136,-0.223 0.435,-0.526l0.044,-0.065l0.076,-0.149l0.004,0l0.02,-0.06l0.016,-0.06l0.008,0l0.02,-0.077l0.008,0l0.016,-0.034l0.032,-0.059l0.012,-0.026l0.004,-0.013l0.219,-0.106l0.021,-0.086l-0.021,-0.039m-3.108,0.556l-0.02,0.034l-0.012,0.15l0.008,0.064l0.004,0l0.013,0.051l0.031,0.052l0.036,0.046l0.016,-0.022l0.02,-0.024l-0.072,-0.137l0.032,-0.044l0.036,-0.033l0.02,-0.014l-0.004,-0.05l-0.008,0l-0.036,-0.052l-0.064,-0.021m-5.861,-13.003l0.152,0.102c0.107,0.065 0.224,0.121 0.331,0.189l0.064,-0.044l0.004,-0.029l0.008,-0.09l0.017,-0.124l0.003,0l0,-0.128l-0.003,0l-0.009,-0.158l0.009,-0.039l0.003,0l0.016,-0.068l0.004,-0.055l0.008,0l0.004,-0.206l0.016,-0.171l0.016,-0.131l0.004,-0.006l-0.004,0l0.008,-0.012l-0.008,0l0.004,-0.008l-0.004,0l-0.008,-0.065l-0.02,-0.021l-0.028,0.004l-0.06,0.09l-0.008,0.018l-0.06,0.111l-0.047,0.055l-0.036,0.076l-0.005,0l-0.036,0.06l-0.019,0.018c-0.032,0.067 -0.128,0.073 -0.217,0.067c-0.111,-0.012 -0.195,-0.054 -0.299,-0.08l-0.132,-0.069l-0.2,-0.098l-0.056,0.013l-0.008,0.034l0.004,0l0.013,0.077l0.019,0.043l0.016,0.026l0,0.034l0.025,0.026l0.027,0.076l0.005,0l0.011,0.039c0.238,0.334 0.152,0.092 0.364,0.35l0.112,0.094m10.987,12.999l0.013,0.008l0.055,0.043l0.164,0l0,-0.026l-0.051,-0.043l-0.181,-0.026l0,0.044zm6.357,-3.842c-0.099,0.09 -0.192,0.188 -0.267,0.291l-0.053,0.166l-0.06,0.048l-0.023,0.042l-0.02,0.085l-0.156,0.21c-0.095,0.068 -0.144,0.183 -0.255,0.235l-0.132,0.107l-0.028,0.042l0.011,0.021l0.024,0.04l0,0.063l-0.167,0.133l-0.085,0.086l-0.211,0.174c-0.1,0.048 -0.196,0.103 -0.316,0.103c-0.108,0.047 -0.236,0.06 -0.336,0.128l-0.211,0.099l-0.204,0.131l-0.084,0.069l-0.012,0.06l0.224,-0.051l0.136,0.008l0.008,0.055l-0.028,0.039l-0.176,0.047l-0.184,0.026l-0.155,0.12l0.036,0.026l0.26,-0.048l0.095,-0.017c0.088,-0.021 0.176,-0.064 0.272,-0.052l0.147,0.044l-0.02,0.038c-0.2,0.017 -0.367,0.111 -0.559,0.136l-0.188,0.074l0.089,0.047c0.115,0.012 0.215,-0.026 0.319,-0.026c0.192,-0.021 0.359,-0.085 0.527,-0.158l0.208,-0.099l0.064,0.035l0,0.068l-0.052,0.043l-0.176,0.132c-0.104,-0.021 -0.155,0.085 -0.263,0.065c-0.164,0.02 -0.324,0.072 -0.495,0.055l-0.2,0.03l-0.028,0.038l0.028,0.026l0.163,0.012c0.088,0.014 0.176,0.014 0.268,0.022c0.136,0.021 0.295,0.013 0.431,-0.013l0.024,0.017l0,0.043c-0.183,0.081 -0.391,0.034 -0.591,0.052l-0.24,-0.014l-0.024,0.03l0.176,0.099c0.104,0.059 0.24,0.068 0.336,0.145c0.096,0.043 0.207,0.047 0.311,0.055l0.204,0.146l0.016,0.029l0.053,0.099l0.043,0.072l0.012,0.077l0.004,0l0.004,0.056l0.004,0.051l0.012,0.137l0.004,0.137l0.012,0.004l-0.012,0.09l0.012,0.051l0,0.171l-0.008,0.008c-0.004,0.086 0,0.214 -0.004,0.325l0.02,0.052l-0.008,0.089l0.008,0.159l0.008,0.111l0.008,0.004c0,0.107 0.004,0.205 0.008,0.308l-0.008,0.046c-0.028,0.148 -0.005,0.552 -0.036,0.722l-0.016,0.095c0.008,0.094 -0.016,0.171 -0.008,0.265l-0.016,0.038l0.008,0.094l-0.008,0.004l-0.008,0.175l-0.012,0.034l-0.016,0.03l0,0.099l-0.007,0.004l-0.013,0.125l-0.028,0.059l-0.008,0.086l-0.012,0.089l-0.008,0.111l0,0.218l-0.012,0.004l0.008,0.009l-0.008,0.004l0.008,0.06l-0.004,0l-0.004,0.141l-0.008,0.005l-0.007,0.131c-0.052,0.274 -0.067,0.547 -0.157,0.812l-0.035,0.111c-0.044,0.099 -0.049,0.248 -0.121,0.33l-0.079,0.043l-0.213,-0.048l-0.023,-0.047l-0.032,-0.034l-0.032,-0.055l-0.032,-0.038l-0.052,-0.091l-0.072,-0.145l-0.068,-0.145l-0.04,-0.068l-0.044,-0.081l-0.027,-0.035l-0.025,-0.038c-0.039,-0.103 -0.124,-0.171 -0.179,-0.261l-0.037,-0.065l-0.079,-0.119c-0.275,-0.517 -0.532,-1.036 -0.799,-1.551l-0.028,-0.051l-0.016,-0.052c-0.161,-0.711 -0.429,-1.173 -0.759,-1.816l-0.009,-0.038l-0.036,-0.059l0.02,-0.056l0.016,-0.24c0.06,-0.093 0.152,-0.175 0.22,-0.26l0.084,-0.111c0.039,-0.139 0.173,-0.256 0.16,-0.411l0,-0.046l-0.1,0.05l-0.132,0.103c-0.076,0.09 -0.187,0.163 -0.304,0.21c-0.047,0.042 -0.087,0.137 -0.179,0.094l-0.036,-0.068l-0.036,-0.026l-0.056,-0.073c0.107,-0.111 0.26,-0.188 0.375,-0.29l0.156,-0.137l0.152,-0.171l0.132,-0.09l0.012,-0.042l0.012,-0.06l-0.012,-0.03l-0.032,-0.026l-0.08,0.043l-0.16,0.128l-0.107,0.098c-0.088,0.073 -0.196,0.116 -0.288,0.188l-0.145,-0.03l0.096,-0.093c0.089,-0.078 0.205,-0.116 0.296,-0.189l0.028,-0.055l-0.043,0.008c-0.185,0.018 -0.352,0.085 -0.54,0.107c-0.092,-0.004 -0.16,0.06 -0.256,0.047c-0.111,0.06 -0.252,0.026 -0.363,0.082l-0.017,0.02l-0.055,0.031c-0.124,-0.021 -0.244,-0.017 -0.371,-0.026l-0.085,0.017l-0.143,0.065l0.007,0.097c0.016,0.116 0.168,0.044 0.228,0.12c0.125,0.004 0.208,0.103 0.332,0.103l0.032,0.064l-0.188,0.021l0.008,0.018l0.036,0.034l0.199,0.077l-0.019,0.038l-0.084,-0.013l-0.148,-0.06c-0.107,0.005 -0.2,-0.017 -0.307,-0.021l-0.073,0.047l-0.079,-0.108c-0.027,-0.065 0.044,-0.102 -0.016,-0.26l-0.024,-0.183l-0.121,-0.03c-0.127,-0.026 -0.255,-0.017 -0.379,-0.047l-0.207,-0.03l-0.037,0.133l-0.004,0.076l0.013,0.085l0.007,0.004l-0.007,0.18l0.007,0.026l-0.007,0.03l0.007,0.077l0.021,0.038l0.008,0.068l0.007,0.081l0.008,0.06l-0.012,0.035l-0.02,0.09l-0.023,0.055l-0.005,0.111l-0.2,0.133l-0.127,0.098c-0.089,0.171 -0.075,0.279 -0.032,0.462l0.016,0.038l0.028,0.055c0.061,0.162 0.122,0.32 0.164,0.487l0.011,0.073l0.049,0.223l0.004,0l0.004,0.042l0.015,0.085c0.078,0.257 0.184,0.496 0.269,0.748l0.023,0.056l0.008,0.043c0.225,0.633 0.408,0.808 0.736,1.324l0.143,0.175l0.096,0.09l0.044,-0.042c0.053,-0.187 0.084,-0.379 0.12,-0.568l-0.008,-0.24l-0.008,-0.004l0.024,-0.052c0.024,-0.187 0.047,-0.373 0.056,-0.56l0.004,-0.149c0.026,-0.122 0.036,-0.164 0.055,-0.295l0.017,-0.046l0,-0.125l0.008,-0.004c-0.008,-0.111 0.016,-0.197 0.008,-0.308l0.008,-0.059l0.019,-0.056l0,-0.154l-0.015,-0.072l-0.004,-0.107l-0.008,-0.034l-0.008,-0.107l-0.008,-0.008l-0.004,-0.103l0.004,-0.107l0.008,-0.026l0.016,-0.038l0.008,-0.129l0.011,-0.038l0.017,-0.038l0.008,-0.073l0.015,-0.043l0.009,-0.184l-0.004,0l-0.009,-0.085l-0.071,-0.171c-0.076,-0.098 -0.188,-0.192 -0.336,-0.188l-0.207,-0.099l-0.104,-0.102l-0.009,-0.059l0.02,-0.03l0.004,-0.065l0.045,-0.026c0.087,0.026 0.179,0.039 0.268,0.069l0.131,0.026l0.144,0.026l-0.204,0.064l-0.088,-0.005l-0.008,0.026l0.2,0.107c0.088,0.056 0.172,0.115 0.247,0.187l0.041,0.073c0.076,0.078 0.051,0.252 0.048,0.354l0,0.073l-0.012,0.06l-0.017,0.065l0,0.32l-0.007,0.004l-0.021,0.069l0,0.26l0.013,0.004l0,0.094l0.008,0.159l-0.008,0.047l-0.02,0.064l0,0.282l0.007,0.004l-0.007,0.039c0.021,0.235 -0.044,0.458 -0.053,0.687l-0.008,0.064c-0.052,0.152 -0.001,0.201 -0.059,0.321l-0.008,0.103l-0.02,0.06c0.012,0.093 -0.012,0.17 -0.005,0.268l-0.011,0.077c-0.031,0.389 -0.095,0.368 -0.144,0.646l-0.02,0.055l-0.172,0.004l-0.083,-0.093l-0.132,-0.125l-0.013,-0.016l-0.007,-0.048l-0.025,-0.042l-0.055,-0.073l-0.109,-0.175l-0.083,-0.103c-0.155,-0.138 -0.166,-0.305 -0.32,-0.491l-0.008,-0.047l-0.024,-0.055c-0.082,-0.274 -0.227,-0.508 -0.288,-0.765l-0.044,-0.091l-0.007,-0.046l-0.025,-0.06l-0.019,-0.025c-0.087,-0.315 -0.185,-0.394 -0.22,-0.757l-0.012,-0.09l-0.016,-0.03c-0.012,-0.252 -0.264,-0.586 -0.164,-0.82l0.02,-0.052l0.024,-0.046l0.052,-0.09c0.06,-0.102 0.192,-0.111 0.284,-0.184l0.083,-0.069l-0.071,-0.14l-0.121,0.051c-0.123,0.022 -0.207,0.111 -0.307,0.163l-0.228,0.077l-0.087,-0.039l0.104,-0.09c0.096,-0.008 0.187,-0.042 0.247,-0.107l-0.084,-0.081l-0.06,-0.076l0.224,-0.014c0.104,-0.03 0.236,-0.008 0.319,-0.093l-0.019,-0.064l-0.252,-0.022l-0.119,-0.043l-0.017,-0.03l0.147,0.008l0.221,-0.008l0.011,-0.089l-0.051,-0.056c-0.1,-0.022 -0.204,-0.034 -0.3,-0.06l-0.028,-0.055l0.056,-0.018l0.232,0.069l0.083,-0.021l0,-0.086l-0.079,-0.085l-0.18,-0.09l-0.223,-0.09l-0.164,-0.094l-0.092,-0.008l0.007,0.094l0.008,0.051l-0.012,0.056l-0.015,0.047l-0.116,0.06l-0.204,0.038l-0.008,0.039l-0.016,0.059l-0.072,0.197l-0.012,0.021l-0.036,0.069c-0.036,0.127 -0.14,0.2 -0.224,0.29l-0.152,0.12c-0.258,0.331 -0.265,0.492 -0.479,0.795l-0.192,0.175c-0.152,0.055 -0.3,0.128 -0.395,0.252l-0.008,0.055l-0.008,0.056l-0.02,0.055l-0.004,0.129l-0.021,0.072l0,0.013l0.008,0.09l-0.015,0.042l-0.017,0.035l-0.015,0.068l-0.021,0.026l-0.023,0.085l-0.02,0.026l-0.025,0.064l-0.043,0.068l-0.021,0.068l-0.003,0.056l-0.024,0.043l-0.068,0.179l-0.072,0.125l-0.02,0.059l-0.016,0.056l-0.02,0.038l-0.032,0.09l-0.02,0.033l-0.087,0.022l-0.057,-0.055c-0.104,-0.152 -0.125,-0.694 -0.163,-0.829l-0.04,-0.017l-0.053,0.093c-0.07,0.154 -0.12,0.273 -0.175,0.428l-0.088,0.116l-0.064,-0.014l-0.02,-0.055l-0.016,-0.082l-0.012,-0.055l-0.016,-0.098l-0.016,-0.06l-0.012,-0.2l-0.008,-0.005l0,-0.094l-0.016,-0.085l0,-0.205l0.008,-0.004l-0.008,-0.026l0,-0.171l0.008,-0.005l0.008,-0.132c0.028,-0.094 0.054,-0.183 0.08,-0.278l-0.012,-0.089c0.012,-0.111 -0.012,-0.206 -0.004,-0.317l0.008,-0.068l0.003,0l0,-0.129c-0.234,-0.414 -0.162,-0.297 -0.223,-0.645l-0.003,-0.132l-0.013,-0.009l0.013,-0.067c0.002,-0.136 0.033,-0.298 0.047,-0.445l0.017,-0.069c0,-0.098 -0.009,-0.153 -0.005,-0.256l-0.012,-0.004l-0.008,-0.064c-0.037,-0.2 -0.051,-0.404 0.025,-0.599l0.032,-0.141l0.003,0l0.024,-0.09l0.072,-0.17l0.044,-0.09l0.068,-0.124l-0.104,-0.124l-0.088,-0.098l-0.064,0.017l-0.004,-0.013l-0.024,0.013l-0.084,-0.072l-0.02,0.072l0.009,0.089l-0.06,0.035l-0.072,-0.107l-0.045,-0.111l-0.024,-0.047c-0.165,-0.127 -0.221,-0.38 -0.351,-0.556l-0.044,-0.059l-0.016,-0.048c-0.052,-0.132 -0.123,-0.251 -0.183,-0.379l-0.064,-0.103l-0.028,-0.078l-0.029,-0.038c-0.22,-0.322 -0.355,-0.693 -0.411,-1.089l-0.02,-0.06l-0.008,-0.124l-0.004,0l-0.005,-0.043l-0.007,-0.042l-0.016,-0.039l-0.008,-0.111l-0.02,-0.038l-0.124,-0.175l-0.112,-0.065l-0.152,-0.068c-0.196,-0.034 -0.379,-0.111 -0.559,-0.175l-0.072,-0.055c-0.128,-0.005 -0.191,-0.103 -0.276,-0.167l0,-0.013l-0.024,-0.039l-0.007,-0.063l-0.029,-0.056l-0.007,-0.133l0,-0.081l0.007,-0.056l0.012,-0.063l-0.004,-0.116l-0.04,-0.086l-0.075,-0.183l-0.028,-0.115l-0.008,-0.018l-0.064,-0.133l-0.053,0.01l-0.135,-0.004l0,0.004l-0.116,0.055l-0.156,-0.034l0.008,-0.06l0.056,-0.03l0.219,-0.064l0.16,-0.077l0.025,-0.047l0.02,-0.077l0,-0.141l-0.009,-0.039l-0.027,-0.038c-0.12,-0.016 -0.232,-0.051 -0.344,-0.077c-0.144,-0.038 -0.264,-0.111 -0.404,-0.157l-0.224,-0.103l-0.003,-0.056l0.024,-0.06l0.203,0.06l0.249,0.119c0.159,0.044 0.303,0.133 0.475,0.151l0.024,-0.039l0.012,-0.052l-0.012,-0.064l-0.016,-0.038l-0.008,-0.047l-0.021,-0.034l-0.015,-0.064l-0.008,-0.065l-0.016,-0.029l-0.021,-0.064l-0.159,-0.111l-0.06,-0.086l0.212,0.022l0.088,-0.086l0.008,-0.094l0.016,-0.043l0.016,-0.051l0.02,-0.03l0.008,-0.089l0.015,-0.039l0.013,-0.06l0.015,-0.038l0.017,-0.052l0.028,-0.043l-0.02,-0.06c-0.08,-0.038 -0.168,-0.076 -0.264,-0.085l-0.148,-0.055l-0.06,-0.052l-0.016,-0.068l0.016,-0.111l0.012,-0.038l-0.012,-0.004l-0.084,-0.116l-0.068,-0.146l-0.055,-0.097l-0.113,-0.155l-0.128,-0.068l-0.179,-0.17l-0.06,-0.082l-0.012,-0.034l-0.016,-0.039l-0.025,-0.042l-0.155,-0.133l-0.056,-0.103c-0.04,-0.123 -0.179,-0.17 -0.239,-0.277c-0.029,-0.094 -0.149,-0.102 -0.189,-0.184c-0.103,-0.064 -0.167,-0.158 -0.259,-0.23l-0.148,-0.116l-0.143,-0.068l0.059,-0.103l-0.087,-0.12c-0.096,-0.059 -0.164,-0.132 -0.224,-0.218l-0.068,-0.085l0.007,-0.038l0.032,-0.107l-0.015,-0.026l-0.145,-0.166l-0.043,-0.06l-0.068,-0.111l-0.012,-0.06l0.02,-0.034l-0.008,-0.073l-0.084,-0.119l-0.048,-0.078l-0.044,-0.063l-0.004,-0.06l-0.02,-0.077l-0.024,-0.077l-0.151,-0.175l-0.032,-0.048l-0.017,-0.042l-0.119,-0.171l-0.045,-0.103l-0.007,-0.025l-0.012,-0.064l-0.017,-0.043l-0.015,-0.06l-0.013,-0.107l-0.004,-0.153l-0.011,-0.026l0.015,-0.056l-0.1,-0.124c-0.065,-0.217 -0.086,-0.169 -0.147,-0.32l0.015,-0.026c0.068,-0.121 0.019,-0.439 -0.043,-0.564l-0.004,-0.081l0.04,-0.026l0.036,0.064l0.016,0.077l0.008,0.069l0.02,0.034l0.016,0.046l0.016,0.069l-0.008,0.154l0.016,0.047l0.019,0.056l0.025,0.051l0.052,0.068l0,0.06l-0.005,0.055l0.013,0.039l0.139,0.171l0.089,0.094l0.023,0.039l0,0.016l-0.068,0.116l0.024,0.017c0.104,0.034 0.2,0.103 0.316,0.111c0.112,0.052 0.236,0.167 0.372,0.094l0.203,-0.162l0.044,-0.065l0.017,-0.046l0.015,-0.043l0.148,-0.141l0.144,0.021l0.072,0.116l0.016,0.059l0.016,0.056l0.02,0.047l0,0.286l-0.013,0.078l-0.007,0.059l-0.008,0.107l-0.008,0l0,0.572l-0.016,0.052l-0.02,0.047l-0.008,0.042l-0.064,0.116l-0.24,-0.047l-0.04,-0.035l-0.207,-0.111c-0.085,-0.042 -0.145,-0.132 -0.24,-0.137l0.036,0.103l0.032,0.086l0.016,0.064l0.007,0.081c0.089,0.055 0.153,0.141 0.245,0.196l0.015,0.039l-0.087,0.009l-0.06,-0.013l0.023,0.038l0.152,0.171c0.116,0.056 0.16,0.159 0.248,0.235l0.032,0.12l-0.1,0.008l0,0.022c0.36,0.312 0.322,0.512 0.855,0.854l0.216,0.218c0.088,0.004 0.1,0.094 0.168,0.125c0.123,0.149 0.336,0.187 0.499,0.307c0.148,0.09 0.316,0.132 0.492,0.166l0.264,0.069l0.131,0.026l0.008,-0.095l0.061,-0.02c0.123,-0.069 0.267,-0.129 0.422,-0.116c0.089,0.034 0.232,0.051 0.3,-0.021c0.1,-0.026 0.152,-0.111 0.26,-0.125l0.168,-0.056l0.164,-0.127l0.131,-0.115c0.072,-0.082 0.192,-0.111 0.256,-0.206l0.157,-0.102l0.139,-0.077c0.1,-0.047 0.168,-0.133 0.276,-0.171l0.084,0.018l-0.052,0.11l-0.2,0.103l-0.247,0.154c-0.105,0.06 -0.209,0.132 -0.288,0.209l-0.189,0.162l-0.207,0.15c-0.104,0.017 -0.196,0.077 -0.296,0.107c-0.079,0.025 -0.143,0.081 -0.232,0.098l-0.199,0.009l-0.176,0.077c-0.092,-0.022 -0.096,0.081 -0.176,0.093c-0.1,0.009 -0.208,0.022 -0.312,0.009c-0.107,0.013 -0.179,-0.09 -0.284,-0.043c-0.087,-0.004 -0.163,-0.047 -0.247,-0.051c-0.112,-0.043 -0.215,-0.085 -0.311,-0.154l-0.156,-0.081l-0.168,-0.039l0.008,0.056c0.06,0.111 0.192,0.145 0.279,0.24l0.037,0.004l0.107,0.123l0.016,0.052l0.02,0.029l0.072,0.086l0.108,0.158l0.144,0.137l0.036,0.086l0.055,0.081l0.021,0.076c0.075,0.069 0.192,0.065 0.284,0.099l0.019,0.034l-0.06,0.094l0.037,0.116c-0.087,0.324 -0.247,0.472 -0.205,0.884l0.021,0.039l0.007,0.059l0.017,0.047l0.008,0.055l0.02,0.048l0,0.093l0.016,0.073l0.016,0.133l0.019,0.042l0,0.099l-0.019,0.051l-0.016,0.06l0.007,0.052l0.017,0.081l-0.004,0.05l0.004,0l0.004,0.052c0.114,0.199 0.052,0.173 0.124,0.316l0.1,0.124l-0.028,0.086l-0.025,0.102l-0.011,0.223l0.099,0.238l0.14,0.038l0.179,-0.101c0.117,-0.022 0.173,-0.133 0.253,-0.189l0.02,-0.034l0.059,-0.098l0.028,-0.072l-0.011,-0.018l0,-0.128l0.036,-0.039l0.103,0.034l0,0.176l-0.024,0.064l-0.019,0.056l-0.036,0.068c-0.064,0.077 -0.132,0.158 -0.22,0.214l-0.057,0.047l-0.159,0.106l0.156,0.099l0.06,-0.022l0.007,-0.042c0.093,-0.099 0.181,0.068 0.292,0.038l0.028,-0.056l0,-0.047l0.084,-0.004l0.267,-0.017c0.113,-0.064 -0.063,-0.085 -0.043,-0.162l0.228,-0.073l-0.012,-0.038l-0.024,-0.038l0.008,-0.039l0.135,-0.048l0.045,0.039l-0.105,0.102l0.021,0.077l0.007,0.005l-0.007,0.029l-0.14,0.193l-0.04,0.055l-0.132,0.048l-0.096,0.077l0.016,0.119l0.212,0.171l0.059,-0.03l0.06,0.022l0.008,0.025l0.009,0.146l0.015,0.025l0.008,0.072l0.021,0.078l0.007,0.063l0.017,0.026l0.011,0.069l0.017,0.042l-0.013,0.069l-0.06,-0.043l-0.015,-0.038l-0.008,-0.06l-0.017,-0.047l-0.035,-0.154l-0.02,-0.055l-0.005,0.038l0.017,0.051l0,0.112l0.008,0.004l0.007,0.175l0.017,0.051c0.051,0.188 0.05,0.402 0.168,0.56l0.071,0.137l0.08,0.192c0.164,0.282 0.326,0.689 0.491,0.953l0.061,0.115l0.052,0.052l-0.004,-0.107l0.048,-0.038l0.047,0.093l0.06,0.145l0.024,0.048l0.029,0.042l0.06,0.021l0.059,-0.067l0.092,0.042l0.148,0.192l0.016,0.026l0.016,0.038l0.116,0.115l0.228,-0.03l0.011,-0.02l0.021,-0.082l0.124,0.056c0.064,0.098 0.155,0.175 0.227,0.265c0.128,0.111 0.236,0.23 0.391,0.315l0.04,-0.008l0.145,0.022c0.1,0.093 0.252,0.127 0.363,0.2c0.08,0.073 0.204,0.099 0.304,0.15c0.088,0.043 0.192,0.043 0.275,0.085c0.152,0.039 0.268,0.133 0.408,0.18c0.116,0.022 0.2,0.103 0.323,0.098c0.113,0.021 0.217,0.077 0.332,0.09c0.109,0.013 0.208,0.068 0.316,0.051l0.151,0.039c0.096,0.046 0.205,0.03 0.313,0.042c0.087,0.03 0.192,0.026 0.283,0.043c0.12,0.043 0.228,-0.034 0.348,-0.021c0.343,0.038 0.687,-0.022 1.01,-0.082c0.132,-0.038 0.284,-0.021 0.416,-0.063l0.1,-0.014l0.116,-0.016l0.06,-0.081l-0.012,-0.044l0.119,-0.111l-0.143,-0.072l-0.004,-0.043c0.083,-0.056 0.204,-0.021 0.303,-0.03l0.18,-0.012l0.18,0.008l0.06,-0.085l0.072,-0.013l0.024,0.038l0.008,0.064l0.016,0.099c0.074,0.225 0.038,0.534 0.08,0.739l0,0.192c-0.512,1.09 -0.672,0.485 -0.132,1.606l0.028,0.073c0.006,0.217 0.221,0.438 0.223,0.616l0.013,0.081l0.028,0.051l0.012,0.077l0.008,0l0.003,0.035c0.339,1.026 1.045,2.066 1.559,2.999l0.112,0.149l0.155,-0.017l0.017,-0.217l0.008,-0.004l0.02,-0.073l0.023,-0.056l0.017,-0.043l0.019,-0.064l0.009,-0.077l0.015,-0.09l0.012,-0.115l0.016,-0.064l0,-0.107l0.008,-0.008l0.012,-0.158l0.005,0l0.007,-0.141c0.027,-0.057 0.047,-0.203 0.072,-0.24l0,-0.116l0.008,-0.004l0,-0.363l0.009,-0.008l0.007,-0.056l0.016,-0.043l0.013,-0.06l0.015,-0.107l0,-0.153l0.017,-0.043l0.011,-0.09l0.016,-0.068l0.008,-0.089l0.02,-0.026l-0.012,-0.025l0.012,-0.095l0.004,-0.252l0.012,-0.004l0.008,-0.235l0.012,-0.095l0.005,0l-0.009,-0.012c-0.004,-0.202 0.049,-0.414 0.032,-0.542l-0.004,-0.176l-0.012,-0.004l0,-0.098l-0.016,-0.069l0,-0.119l-0.008,-0.004l-0.008,-0.142l0.008,-0.132l0,-0.244l-0.02,-0.056l0.012,-0.063l0,-0.112l-0.012,-0.008l0,-0.141l-0.004,-0.094l-0.02,-0.051l-0.008,-0.085l-0.016,-0.061l-0.028,-0.09c-0.076,-0.119 -0.232,-0.162 -0.383,-0.166c-0.088,0.004 -0.148,-0.064 -0.228,-0.076c-0.092,-0.044 -0.2,-0.052 -0.303,-0.077c-0.104,-0.04 -0.192,-0.12 -0.249,-0.21l-0.019,-0.047c0.023,-0.541 -0.241,-0.772 -0.244,-1.06l0.043,-0.039l0.105,0.077l0.019,0.034l0.017,0.052l0.143,-0.038c0.116,-0.026 0.204,-0.09 0.288,-0.159c0.168,-0.093 0.323,-0.218 0.515,-0.264l0.072,-0.03c0.092,-0.013 0.164,-0.065 0.256,-0.081c0.12,-0.082 0.279,-0.115 0.375,-0.227l-0.011,-0.055l-0.136,-0.022l-0.068,-0.051l0.176,-0.103l0.28,-0.158c0.155,-0.051 0.264,-0.166 0.351,-0.277l0.02,-0.056l-0.032,-0.018c-0.08,0.03 -0.168,0.069 -0.26,0.06l-0.079,-0.055l0.111,-0.06c0.156,-0.034 0.304,-0.111 0.404,-0.213l0.156,-0.154l0.143,-0.15l0.108,-0.119l0.096,-0.107l0.048,0l-0.032,0.081" id="path6491" fill-rule="nonzero" fill="#ffffff"/>
      </g>
      <g id="g6493" fill="#000000">
       <path d="m563.56824,278.4863l0.016,-0.026l0.004,-0.115l0.004,-0.068l-0.008,-0.009l-0.1,-0.03l-0.036,0.026l-0.02,0.043l-0.036,0.119l0.029,0.034l0,0.014l0.043,0.02l0.104,-0.008z" id="path6495" fill-rule="nonzero" fill="#ffffff"/>
      </g>
     </g>
    </g>
   </g>
  </g>
 </g>
</svg>